<svg width="55" height="43" viewBox="0 0 55 43" fill="none" xmlns="http://www.w3.org/2000/svg">
<g clip-path="url(#clip0_7010_1557)">
<g clip-path="url(#clip1_7010_1557)">
<g clip-path="url(#clip2_7010_1557)">
<path fill-rule="evenodd" clip-rule="evenodd" d="M52.3329 30.754C52.0229 31.9209 50.1153 37.1736 49.4476 39.2622C48.8237 41.2128 49.0717 34.8061 48.4478 36.7568C48.3489 37.0662 47.0085 37.3847 46.7524 37.5827C46.471 37.8004 46.0204 38.306 45.6654 38.3046C42.6724 38.2894 45.0069 37.5982 42.0134 37.5827C40.4992 37.5746 40.1206 38.164 38.6059 38.1563C37.8487 38.1527 36.9021 38.3081 36.1449 38.3046C35.4828 38.3014 30.5125 37.4139 29.8848 37.2462C30.1844 35.5833 32.4917 39.9281 32.9657 38.3046C33.4545 36.6328 30.4058 38.9733 30.8942 37.3015C31.8809 33.9235 32.8675 30.5455 33.8545 27.1674C39.4122 27.1674 44.9699 27.1664 50.5274 27.166C51.1176 27.166 51.8537 27.2728 52.2951 27.6667C52.9242 28.2286 52.7281 29.1454 52.5315 29.968C52.4688 30.2305 52.402 30.493 52.3329 30.754Z" fill="#C0131B"/>
<path fill-rule="evenodd" clip-rule="evenodd" d="M4.29065 30.7537C4.60081 31.9213 6.50778 37.1736 7.17617 39.2618C7.79999 41.2124 7.55194 34.8057 8.1758 36.7565C8.27473 37.0662 9.61502 37.3843 9.87115 37.583C10.1522 37.8008 10.6027 38.3063 10.9578 38.3042C13.9507 38.2891 11.6167 37.5982 14.6096 37.583C16.1243 37.5753 16.5029 38.164 18.0175 38.1559C18.7747 38.1527 19.7213 38.3077 20.4785 38.3042C21.1406 38.3011 26.111 37.4136 26.7387 37.2458C26.439 35.5829 24.1314 39.9277 23.6577 38.3042C23.1693 36.6332 26.2177 38.9729 25.7292 37.3012C24.7426 33.9238 23.756 30.5458 22.7693 27.1678C17.2113 27.1671 11.6535 27.166 6.09587 27.166C5.5057 27.166 4.76958 27.2728 4.32854 27.6663C3.69909 28.2279 3.89557 29.145 4.09206 29.9673C4.15486 30.2309 4.22153 30.4926 4.29065 30.7537Z" fill="#C0131B"/>
<path fill-rule="evenodd" clip-rule="evenodd" d="M46.8868 23.8814C46.8868 34.3019 38.4741 42.7498 28.0965 42.7498C17.7194 42.7498 9.30664 34.3019 9.30664 23.8814C9.30664 13.4609 17.7194 5.01367 28.0965 5.01367C38.4741 5.01367 46.8868 13.4609 46.8868 23.8814Z" fill="#FCD842"/>
<path fill-rule="evenodd" clip-rule="evenodd" d="M41.7182 10.909C38.3819 7.86146 33.9525 6.00545 29.0931 6.00545C18.7113 6.00545 10.294 14.4576 10.294 24.8827C10.294 29.7619 12.1424 34.2093 15.1767 37.5601C11.561 34.1395 9.30566 29.2715 9.30566 23.8786C9.30566 13.4647 17.7225 5.01367 28.0927 5.01367C33.4638 5.01331 38.312 7.278 41.7182 10.909Z" fill="#FDE869"/>
<path fill-rule="evenodd" clip-rule="evenodd" d="M42.2943 23.8816C42.2943 31.7552 35.9377 38.1385 28.0962 38.1385C20.2551 38.1385 13.8984 31.7552 13.8984 23.8816C13.8984 16.0079 20.2551 9.625 28.0962 9.625C35.9377 9.62532 42.2943 16.0079 42.2943 23.8816Z" fill="#F7B500"/>
<path fill-rule="evenodd" clip-rule="evenodd" d="M38.6032 14.2939C36.0802 12.0408 32.7673 10.652 29.1162 10.652C21.2694 10.652 14.9216 17.0258 14.9216 24.9054C14.9216 28.5716 16.305 31.8986 18.5488 34.4317C15.6889 31.8284 13.8984 28.0692 13.8984 23.8788C13.8984 16.0104 20.2579 9.625 28.0934 9.625C32.2673 9.62464 36.0107 11.4218 38.6032 14.2939Z" fill="#E28900"/>
<path fill-rule="evenodd" clip-rule="evenodd" d="M29.573 17.5283C30.1323 17.6654 30.6379 17.8616 31.0908 18.1171C31.5442 18.3732 31.9319 18.6596 32.2546 18.9774C32.5775 19.2949 32.8322 19.6289 33.0185 19.9773C33.2051 20.3265 33.3034 20.6633 33.3153 20.9877C33.3153 21.0998 33.276 21.196 33.1943 21.277C33.1139 21.3584 33.0245 21.3989 32.9244 21.3989H30.4852C30.3126 21.3989 30.1716 21.3742 30.0667 21.3242C29.9604 21.2749 29.853 21.1992 29.7407 21.0998C29.7031 21.0624 29.6442 21.0001 29.5639 20.9127C29.4835 20.826 29.3688 20.7351 29.22 20.6414C29.0713 20.5477 28.8846 20.4674 28.6608 20.398C28.4376 20.33 28.1653 20.2955 27.8425 20.2955C27.6057 20.2955 27.3787 20.3113 27.1619 20.3423C26.945 20.3737 26.7527 20.4233 26.5847 20.4917C26.418 20.5608 26.2801 20.6573 26.1756 20.7817C26.0693 20.9064 26.0163 21.0624 26.0163 21.2492C26.0163 21.4359 26.0756 21.592 26.1934 21.717C26.3114 21.8418 26.5103 21.9573 26.7889 22.063C27.0689 22.1687 27.4376 22.2713 27.8966 22.371C28.3559 22.4703 28.9274 22.5891 29.6102 22.7264C30.2923 22.8642 30.8894 23.0382 31.3982 23.25C31.9059 23.4617 32.3315 23.7267 32.6729 24.0448C33.015 24.3622 33.2701 24.7364 33.4364 25.1662C33.6048 25.5964 33.688 26.1041 33.688 26.69C33.688 27.2136 33.5876 27.6934 33.3897 28.13C33.1915 28.5665 32.9125 28.9526 32.5519 29.2891C32.1926 29.6262 31.7578 29.9063 31.2484 30.1304C30.7393 30.3549 30.1818 30.5166 29.5727 30.6166V31.9438C29.5727 32.0809 29.5239 32.1992 29.4242 32.299C29.3235 32.3987 29.2074 32.4487 29.0709 32.4487H26.6313C26.4948 32.4487 26.377 32.3987 26.277 32.299C26.1784 32.1992 26.1286 32.0809 26.1286 31.9438V30.5603C25.5324 30.4232 24.9949 30.2269 24.5174 29.9715C24.0402 29.7168 23.63 29.4268 23.2887 29.1017C22.9479 28.7789 22.6841 28.4266 22.4974 28.0461C22.3108 27.6656 22.2111 27.2826 22.1992 26.8965C22.1992 26.7841 22.2399 26.6872 22.3206 26.6069C22.4006 26.5255 22.4915 26.4853 22.5901 26.4853H25.0296C25.2037 26.4853 25.3402 26.5068 25.4387 26.5502C25.5391 26.5939 25.6373 26.6594 25.7373 26.7467C25.7872 26.7972 25.8615 26.8778 25.9602 26.9895C26.0601 27.1019 26.1934 27.2171 26.3615 27.3355C26.5285 27.4546 26.7391 27.5567 26.9934 27.6448C27.2478 27.7315 27.5615 27.7752 27.9345 27.7752C28.5923 27.7752 29.1418 27.7044 29.5832 27.5603C30.0225 27.4172 30.2439 27.1586 30.2439 26.7845C30.2439 26.5974 30.1621 26.4416 30.0014 26.3169C29.8393 26.1926 29.5986 26.0767 29.2758 25.971C28.953 25.8652 28.5393 25.7624 28.0376 25.6623C27.5345 25.563 26.9418 25.4382 26.2587 25.2885C24.9795 25.014 24.0462 24.556 23.4567 23.9145C22.8676 23.2718 22.5718 22.4157 22.5718 21.3432C22.5718 20.9071 22.6525 20.4861 22.8146 20.0816C22.9753 19.6757 23.2086 19.3058 23.5132 18.9683C23.816 18.6321 24.189 18.3394 24.63 18.0896C25.0707 17.8408 25.5689 17.6474 26.1286 17.5104V16.1268C26.1286 15.9901 26.1784 15.8714 26.277 15.7713C26.377 15.6713 26.4948 15.6216 26.6313 15.6216H29.0709C29.2074 15.6216 29.3239 15.6713 29.4242 15.7713C29.5239 15.871 29.5727 15.9898 29.5727 16.1268L29.573 17.5283Z" fill="#E28900"/>
<path fill-rule="evenodd" clip-rule="evenodd" d="M29.1153 17.0687C29.6745 17.2058 30.1809 17.402 30.6338 17.6581C31.0864 17.9136 31.4745 18.2 31.7973 18.5182C32.1201 18.8356 32.3744 19.1696 32.5611 19.518C32.7471 19.8672 32.8457 20.204 32.8579 20.5285C32.8579 20.6405 32.8187 20.7371 32.7365 20.8177C32.6565 20.8991 32.5671 20.9393 32.4671 20.9393H30.0272C29.8545 20.9393 29.7138 20.915 29.6093 20.8649C29.5033 20.8156 29.3956 20.7399 29.2833 20.6405C29.2454 20.6032 29.1861 20.5408 29.1061 20.4534C29.0258 20.366 28.9104 20.2759 28.7619 20.1828C28.6139 20.0888 28.4272 20.0084 28.203 19.9391C27.9802 19.8718 27.7076 19.8365 27.3848 19.8365C27.1483 19.8365 26.921 19.8524 26.7045 19.8837C26.4876 19.9147 26.2953 19.9641 26.1273 20.0324C25.9603 20.1015 25.8227 20.1987 25.7178 20.3224C25.6119 20.4471 25.5589 20.6032 25.5589 20.7903C25.5589 20.977 25.6182 21.1323 25.7361 21.2571C25.854 21.3821 26.0529 21.4977 26.3315 21.6034C26.6122 21.7091 26.9803 21.8116 27.4392 21.9113C27.8985 22.011 28.4697 22.1294 29.1532 22.2668C29.8352 22.4046 30.4321 22.5793 30.9412 22.7904C31.4489 23.0021 31.8748 23.2671 32.2151 23.5852C32.5583 23.9026 32.8127 24.2764 32.9793 24.7066C33.1481 25.1368 33.2309 25.6448 33.2309 26.2304C33.2309 26.7539 33.1313 27.2335 32.9323 27.6703C32.7338 28.1062 32.4552 28.493 32.0945 28.8294C31.7352 29.1659 31.3004 29.4467 30.791 29.6708C30.2815 29.8952 29.7244 30.0569 29.1149 30.157V31.4842C29.1149 31.6212 29.0669 31.7403 28.9665 31.8397C28.8669 31.9394 28.75 31.9901 28.6139 31.9901H26.174C26.0378 31.9901 25.9196 31.9394 25.8192 31.8397C25.721 31.7403 25.6708 31.6216 25.6708 31.4842V30.1006C25.0757 29.9636 24.5375 29.7673 24.0604 29.5119C23.5828 29.2572 23.1723 28.9672 22.8316 28.6427C22.4905 28.3193 22.2271 27.967 22.0404 27.5865C21.8541 27.206 21.7544 26.823 21.7422 26.4369C21.7422 26.3244 21.7825 26.2276 21.8632 26.1466C21.9436 26.0655 22.0345 26.0253 22.1327 26.0253H24.5726C24.747 26.0253 24.8828 26.0472 24.9817 26.0912C25.0814 26.1342 25.1799 26.1994 25.28 26.2871C25.3298 26.3372 25.4041 26.4182 25.5024 26.5299C25.6027 26.6419 25.7357 26.7582 25.9041 26.8759C26.0708 26.9949 26.2813 27.0971 26.5361 27.1852C26.7904 27.2718 27.1044 27.3162 27.4771 27.3162C28.1349 27.3162 28.6844 27.244 29.1258 27.1006C29.5651 26.9576 29.7865 26.699 29.7865 26.3248C29.7865 26.1378 29.7044 25.9827 29.5437 25.8573C29.3816 25.7326 29.1405 25.617 28.8181 25.5113C28.4949 25.4049 28.0816 25.3028 27.5802 25.2034C27.0767 25.1037 26.4845 24.979 25.8013 24.8292C24.5221 24.5555 23.5891 24.0967 22.9993 23.4552C22.4099 22.8129 22.1141 21.9564 22.1141 20.8836C22.1141 20.4478 22.1948 20.0271 22.3569 19.6223C22.5172 19.2172 22.7509 18.8465 23.0555 18.509C23.3583 18.1729 23.7312 17.8801 24.1719 17.6307C24.613 17.3819 25.1112 17.1885 25.6705 17.0511V15.6668C25.6705 15.5301 25.7206 15.4114 25.8189 15.3113C25.9192 15.212 26.0371 15.1616 26.1736 15.1616H28.6135C28.7497 15.1616 28.8665 15.212 28.9662 15.3113C29.0665 15.411 29.1146 15.5298 29.1146 15.6668V17.0687H29.1153Z" fill="#FCD842"/>
<path fill-rule="evenodd" clip-rule="evenodd" d="M50.5308 27.1662C51.2037 27.1588 52.4078 27.3572 52.5746 28.182C52.6442 28.5268 52.2614 29.4285 51.2886 29.4285C51.2222 29.4285 5.19335 29.4232 5.19335 29.4232L2.26607 39.3265C2.26607 39.3265 1.98748 41.558 3.82392 41.558C13.5815 41.558 45.0946 41.5588 45.0946 41.56H47.1462C48.423 41.56 49.5422 40.7093 49.8879 39.4759C50.772 36.3212 52.3185 30.7127 52.5445 30.0076C53.0623 28.3916 53.0418 27.1602 50.5308 27.1662Z" fill="#E4081C"/>
<path fill-rule="evenodd" clip-rule="evenodd" d="M4.0001 28.1406C4.0001 28.1406 3.54117 29.3854 7.25823 29.4227C5.60601 35.5192 3.89941 41.5571 3.89941 41.5571H2.80295C1.50545 41.5571 0.567237 40.3115 0.920909 39.0576L4.0001 28.1406Z" fill="#E4081C"/>
<path fill-rule="evenodd" clip-rule="evenodd" d="M7.98256 36.9404C8.84814 36.9404 9.54601 36.7044 10.1165 36.0043L9.18359 35.108C8.86185 35.4987 8.50607 35.6537 8.13729 35.6537C7.55344 35.6537 7.171 35.2831 7.171 34.7307C7.171 33.8886 7.69451 33.2957 8.43941 33.2957C8.86885 33.2957 9.1776 33.4983 9.37865 33.8481L10.5193 32.9525C10.1772 32.3458 9.43899 32.009 8.53975 32.009C6.8019 32.009 5.57422 33.1745 5.57422 34.8321C5.57386 36.0846 6.52648 36.9404 7.98256 36.9404ZM13.8129 36.8326L13.6589 36.0106H11.8673L11.3975 36.8326H9.72708L12.7193 32.1161H14.276L15.39 36.8326H13.8129ZM12.5182 34.8656H13.4375L13.209 33.6589L12.5182 34.8656ZM17.51 36.9404C18.9731 36.9404 19.8857 36.233 19.8857 35.182C19.8857 33.7269 17.6444 34.057 17.6444 33.5381C17.6444 33.3763 17.8724 33.221 18.3356 33.221C18.7917 33.221 19.2478 33.3355 19.6239 33.5716L20.1945 32.4124C19.758 32.1496 19.1341 32.0083 18.4363 32.0083C16.9539 32.0083 16.0609 32.7091 16.0609 33.7804C16.0609 35.2422 18.2952 34.9526 18.2952 35.4512C18.2952 35.6199 18.0805 35.7277 17.6714 35.7277C17.1482 35.7277 16.6111 35.5931 16.0879 35.2898L15.477 36.462C15.9269 36.7385 16.6714 36.9404 17.51 36.9404ZM24.0389 32.1161H25.6223L24.6831 36.8326H23.0996L23.4484 35.0942H21.9856L21.6369 36.8326H20.0531L20.9927 32.1161H22.5761L22.2407 33.7872H23.7034L24.0389 32.1161ZM31.7348 34.4072C32.2512 34.1849 32.5733 33.7875 32.5733 33.2411C32.5733 32.5273 32.0028 32.1161 30.8892 32.1161H28.3998L27.4605 36.8326H30.1713C31.372 36.8326 32.3653 36.3742 32.3653 35.3303C32.3653 34.8991 32.1376 34.582 31.7348 34.4072ZM30.5067 33.228C30.7685 33.228 30.9229 33.3221 30.9229 33.5176C30.9229 33.7734 30.7618 33.9288 30.3997 33.9288H29.5945L29.7352 33.228H30.5067ZM30.2587 35.7207H29.2387L29.3864 34.9794H30.406C30.6141 34.9794 30.7951 35.0805 30.7951 35.2894C30.7951 35.5794 30.5674 35.7207 30.2587 35.7207ZM36.2234 36.8326L36.069 36.0106H34.2778L33.808 36.8326H32.1372L35.1297 32.1161H36.6865L37.8005 36.8326H36.2234ZM34.9283 34.8656H35.8476L35.6195 33.6589L34.9283 34.8656ZM40.6583 36.9404C41.5244 36.9404 42.2219 36.7044 42.7924 36.0043L41.8597 35.108C41.5377 35.4987 41.1823 35.6537 40.8131 35.6537C40.2292 35.6537 39.8468 35.2831 39.8468 34.7307C39.8468 33.8886 40.3703 33.2957 41.1148 33.2957C41.5437 33.2957 41.8529 33.4983 42.0539 33.8481L43.1944 32.9525C42.8523 32.3458 42.1142 32.009 41.2153 32.009C39.4773 32.009 38.2493 33.1745 38.2493 34.8321C38.25 36.0846 39.2026 36.9404 40.6583 36.9404ZM48.7439 32.1161L46.3889 34.2656L47.9189 36.8326H46.1545L45.2013 35.2965L44.7587 35.7076L44.5372 36.8326H42.9805L43.9201 32.1161H45.4767L45.141 33.7872L46.926 32.1161H48.7439Z" fill="white"/>
<path fill-rule="evenodd" clip-rule="evenodd" d="M50.6214 26.2812H44.0424C43.5994 26.2812 43.2834 25.7531 43.4165 25.2341C43.5029 24.8987 43.7562 24.6704 44.0424 24.6704H50.6214C51.0653 24.6704 51.3809 25.1989 51.2474 25.7175C51.1618 26.0532 50.9081 26.2812 50.6214 26.2812Z" fill="#E4081C"/>
<path fill-rule="evenodd" clip-rule="evenodd" d="M54.222 25.5073C54.222 25.9583 53.8578 26.3237 53.4096 26.3237C52.9605 26.3237 52.5967 25.9583 52.5967 25.5073C52.5967 25.0568 52.9605 24.6914 53.4096 24.6914C53.8578 24.6917 54.222 25.0571 54.222 25.5073Z" fill="#E4081C"/>
<path fill-rule="evenodd" clip-rule="evenodd" d="M48.3249 10.2942L48.3607 10.2868C47.1108 10.0194 46.1496 9.01143 45.9385 7.74556L45.8417 7.16846L45.752 7.70576C45.5397 8.97268 44.5777 9.9803 43.3262 10.2474L43.29 10.2551C44.5407 10.5222 45.5011 11.5294 45.713 12.7953L45.8099 13.3731L45.8995 12.8355C46.1114 11.5689 47.073 10.5613 48.3249 10.2942Z" fill="#F7B500"/>
<path fill-rule="evenodd" clip-rule="evenodd" d="M21.3186 3.06618L21.3432 3.0609C20.493 2.87875 19.8394 2.19349 19.6955 1.33242L19.6299 0.939941L19.5685 1.3053C19.4243 2.16672 18.7703 2.85233 17.9191 3.03377L17.8945 3.03906C18.745 3.22085 19.3983 3.90647 19.5422 4.76683L19.6078 5.16002L19.6688 4.7943C19.8134 3.93254 20.4674 3.24727 21.3186 3.06618Z" fill="#F7B500"/>
</g>
</g>
</g>
<defs>
<clipPath id="clip0_7010_1557">
<rect width="53.44" height="42" fill="white" transform="translate(0.780273 0.939941)"/>
</clipPath>
<clipPath id="clip1_7010_1557">
<rect width="53.44" height="41.81" fill="white" transform="translate(0.780273 0.939941)"/>
</clipPath>
<clipPath id="clip2_7010_1557">
<rect width="53.4686" height="41.81" fill="white" transform="translate(0.765625 0.939941)"/>
</clipPath>
</defs>
</svg>
